<?xml version="1.0" encoding="UTF-8"?>
<svg width="2531px" height="532px" viewBox="0 0 2531 532" version="1.1" xmlns="http://www.w3.org/2000/svg" xmlns:xlink="http://www.w3.org/1999/xlink">
    <!-- Generator: Sketch 49 (51002) - http://www.bohemiancoding.com/sketch -->
    <title>NORTAL_Illustrations_V2_P_Seamless Society</title>
    <desc>Created with Sketch.</desc>
    <defs></defs>
    <g id="Page-1" stroke="none" stroke-width="1" fill="none" fill-rule="evenodd">
        <g id="NORTAL_Illustrations_V2_P_Seamless-Society" transform="translate(-1.000000, -68.000000)">
            <path d="M646.63,126.855 C646.63,118.366 639.771,111.497 631.284,111.497 C628.732,111.497 626.341,112.121 624.225,113.212 C622.39,101.11 611.97,91.82 599.345,91.82 C594.665,91.82 590.301,93.119 586.551,95.331 L586.563,94.938 C586.563,81.005 575.267,69.727 561.365,69.727 C547.83,69.727 536.823,80.381 536.203,93.764 C533.21,92.515 529.93,91.822 526.491,91.822 C512.57,91.822 501.28,103.106 501.28,117.008 C501.28,130.465 511.838,141.438 525.112,142.158 L525.112,142.227 L632.314,142.227 L632.314,142.174 C640.316,141.635 646.63,134.993 646.63,126.855" id="Fill-1" fill="#62DE81"></path>
            <path d="M1301.94,73.676 C1324.83,73.676 1343.39,92.234 1343.39,115.126 C1343.39,138.019 1324.83,156.577 1301.94,156.577 C1279.04,156.577 1260.49,138.019 1260.49,115.126 C1260.49,92.234 1279.04,73.676 1301.94,73.676" id="Fill-2" fill="#009639"></path>
            <path d="M1330.15,130.803 C1330.15,122.313 1323.29,115.444 1314.8,115.444 C1312.25,115.444 1309.86,116.068 1307.74,117.16 C1305.91,105.058 1295.49,95.768 1282.86,95.768 C1278.18,95.768 1273.81,97.066 1270.06,99.279 L1270.08,98.886 C1270.08,84.953 1258.78,73.674 1244.88,73.674 C1231.34,73.674 1220.34,84.329 1219.72,97.711 C1216.72,96.462 1213.44,95.77 1210,95.77 C1196.08,95.77 1184.8,107.054 1184.8,120.955 C1184.8,134.413 1195.35,145.385 1208.63,146.106 L1208.63,146.175 L1315.83,146.175 L1315.83,146.122 C1323.83,145.583 1330.15,138.941 1330.15,130.803" id="Fill-3" fill="#62DE81"></path>
            <path d="M732.876,104.269 C745.685,104.269 756.069,114.652 756.069,127.461 C756.069,140.27 745.685,150.653 732.876,150.653 C720.068,150.653 709.684,140.27 709.684,127.461 C709.684,114.652 720.068,104.269 732.876,104.269" id="Fill-4" fill="#62DE81"></path>
            <path d="M788.801,85.519 C798.702,85.519 806.729,93.546 806.729,103.447 C806.729,113.349 798.702,121.376 788.801,121.376 C778.899,121.376 770.872,113.349 770.872,103.447 C770.872,93.546 778.899,85.519 788.801,85.519" id="Fill-5" fill="#C7FFD3"></path>
            <path d="M1941.79,125.148 C1941.79,116.658 1934.94,109.79 1926.45,109.79 C1923.9,109.79 1921.51,110.413 1919.39,111.505 C1917.55,99.403 1907.13,90.112 1894.51,90.112 C1889.83,90.112 1885.46,91.411 1881.71,93.624 L1881.72,93.231 C1881.72,79.3 1870.43,68.02 1856.53,68.02 C1842.99,68.02 1831.98,78.674 1831.36,92.057 C1828.37,90.807 1825.09,90.114 1821.65,90.114 C1807.73,90.114 1796.44,101.398 1796.44,115.3 C1796.44,128.758 1807,139.73 1820.27,140.451 L1820.27,140.52 L1927.48,140.52 L1927.48,140.467 C1935.48,139.93 1941.79,133.286 1941.79,125.148" id="Fill-6" fill="#62DE81"></path>
            <path d="M1065.92,196.719 C1065.92,188.229 1059.06,181.36 1050.58,181.36 C1048.02,181.36 1045.63,181.984 1043.52,183.076 C1041.68,170.974 1031.26,161.683 1018.64,161.683 C1013.96,161.683 1009.59,162.982 1005.84,165.195 L1005.85,164.802 C1005.85,150.869 994.56,139.588 980.66,139.588 C967.122,139.588 956.114,150.245 955.494,163.625 C952.502,162.376 949.223,161.683 945.783,161.683 C931.864,161.683 920.573,172.968 920.573,186.869 C920.573,200.327 931.131,211.299 944.403,212.02 L944.403,212.089 L1051.61,212.089 L1051.61,212.036 C1059.61,211.499 1065.92,204.856 1065.92,196.719" id="Fill-7" fill="#C7FFD3"></path>
            <path d="M2033.96,102.611 C2053.22,101.089 2072.98,108.155 2086.83,121.632 C2088.65,123.476 2088.44,126.721 2086.54,128.436 C2084.81,130.503 2081.32,130.568 2079.5,128.574 C2067.66,117.333 2051,111.331 2034.7,112.661 C2021.16,113.632 2008.08,119.562 1998.31,128.981 C1997.45,129.879 1996.34,130.623 1995.06,130.692 C1991.84,131.093 1988.83,127.751 1989.51,124.593 C1989.69,123.46 1990.41,122.515 1991.24,121.755 C2002.67,110.65 2018.07,103.775 2033.96,102.611" id="Fill-8" fill="#009639"></path>
            <path d="M2033.64,124.573 C2048.39,122.866 2063.76,128.197 2074.28,138.672 C2075.92,140.528 2075.74,143.571 2073.94,145.265 C2072.3,147.296 2068.96,147.551 2067.08,145.727 C2060.34,139.182 2051.27,135.06 2041.89,134.438 C2030.49,133.578 2018.9,137.981 2010.85,146.063 C2008.99,148.048 2005.51,147.851 2003.81,145.762 C2001.99,144.063 2001.81,140.933 2003.54,139.104 C2011.52,131.008 2022.35,125.815 2033.64,124.573" id="Fill-9" fill="#62DE81"></path>
            <path d="M2035.98,146.27 C2045.28,145.275 2054.94,148.776 2061.47,155.472 C2063.26,157.315 2063.08,160.487 2061.22,162.21 C2059.53,164.277 2056.14,164.438 2054.28,162.526 C2050.6,158.801 2045.52,156.47 2040.28,156.224 C2034.32,155.839 2028.32,158.233 2024.13,162.445 C2023.1,163.618 2021.56,164.342 2019.98,164.168 C2016.32,163.941 2013.74,159.064 2016.24,156.107 C2021.3,150.543 2028.52,147.061 2035.98,146.27" id="Fill-10" fill="#009639"></path>
            <path d="M1693.05,197.348 C1693.05,188.859 1686.19,181.99 1677.71,181.99 C1675.15,181.99 1672.76,182.614 1670.65,183.705 C1668.81,171.604 1658.39,162.313 1645.77,162.313 C1641.09,162.313 1636.72,163.612 1632.97,165.824 L1632.99,165.432 C1632.99,151.498 1621.69,140.22 1607.79,140.22 C1594.25,140.22 1583.24,150.875 1582.63,164.257 C1579.63,163.008 1576.35,162.315 1572.91,162.315 C1558.99,162.315 1547.7,173.599 1547.7,187.501 C1547.7,200.958 1558.26,211.931 1571.53,212.651 L1571.53,212.72 L1678.74,212.72 L1678.74,212.667 C1686.74,212.128 1693.05,205.486 1693.05,197.348" id="Fill-11" fill="#C7FFD3"></path>
            <polyline id="Fill-12" fill="#62DE81" points="1551.4 311.917 1564.51 341.155 1514.6 341.155 1527.2 311.917 1551.4 311.917"></polyline>
            <polyline id="Fill-13" fill="#005C37" points="1500.94 250.448 1511.05 242.424 1543.14 282.87 1533.03 290.894 1500.94 250.448"></polyline>
            <path d="M1480.77,299.415 C1499.96,323.614 1535.14,327.676 1559.35,308.479 C1583.55,289.275 1587.6,254.098 1568.41,229.896" id="Fill-14" fill="#009639"></path>
            <path d="M1493.75,230.831 C1499.33,226.398 1507.45,227.329 1511.88,232.91 C1516.32,238.492 1515.39,246.61 1509.81,251.043 C1504.23,255.477 1496.11,254.545 1491.67,248.964 C1487.24,243.383 1488.17,235.264 1493.75,230.831" id="Fill-15" fill="#009639"></path>
            <path d="M1449.33,178.587 C1433.94,191.34 1424.36,210.835 1423.79,230.828 C1423.77,233.507 1426.27,235.767 1428.91,235.674 C1431.69,235.958 1434.33,233.491 1434.24,230.7 C1434.93,213.81 1442.96,197.35 1456.02,186.581 C1466.77,177.541 1480.76,172.506 1494.8,172.46 C1496.09,172.506 1497.45,172.249 1498.46,171.38 C1501.13,169.354 1500.95,164.711 1498.18,162.85 C1497.22,162.145 1496,161.963 1494.85,161.993 C1478.36,161.995 1461.96,167.998 1449.33,178.587" id="Fill-16" fill="#C7FFD3"></path>
            <path d="M1465.4,194.66 C1453.22,204.028 1445.66,219.066 1445.4,234.424 C1445.52,236.993 1447.85,239.124 1450.4,239.081 C1453.08,239.404 1455.74,237.188 1455.83,234.478 C1456.11,224.759 1459.87,215.16 1466.39,207.932 C1474.23,199.081 1486.02,193.989 1497.82,194.18 C1500.62,194.314 1503.07,191.656 1502.83,188.882 C1502.95,186.303 1500.82,183.851 1498.22,183.745 C1486.46,183.488 1474.68,187.448 1465.4,194.66" id="Fill-17" fill="#62DE81"></path>
            <path d="M1623.37,561.846 C1623.37,571.962 1615.17,580.158 1605.06,580.158 L1471.82,580.158 C1461.7,580.158 1453.51,571.962 1453.51,561.846 L1453.51,354.35 C1453.51,344.238 1461.7,336.043 1471.82,336.043 L1605.06,336.043 C1615.17,336.043 1623.37,344.238 1623.37,354.35 L1623.37,561.846 Z M1479.31,212.454 C1471.68,218.425 1467.04,227.986 1467.02,237.669 C1467.02,240.318 1469.44,242.551 1472.06,242.484 C1474.8,242.803 1477.45,240.47 1477.45,237.719 C1477.5,232.291 1479.59,226.904 1483.29,222.943 C1487.44,218.368 1493.62,215.812 1499.77,215.914 C1501.38,216.044 1503.04,215.478 1504.09,214.21 C1506.65,211.388 1505.05,205.915 1501.06,205.522 C1493.29,205.042 1485.42,207.664 1479.31,212.454 Z" id="Fill-18" fill="#009639"></path>
            <polygon id="Fill-19" fill="#62DE81" points="1469.63 548.572 1606.81 548.572 1606.81 357.115 1469.63 357.115"></polygon>
            <polygon id="Fill-20" fill="#C7FFD3" points="1469.63 375.535 1606.81 375.535 1606.81 357.115 1469.63 357.115"></polygon>
            <path d="M1555.98,347.74 C1555.98,349.648 1554.44,351.194 1552.53,351.194 L1523.42,351.194 C1521.51,351.194 1519.96,349.648 1519.96,347.74 C1519.96,345.831 1521.51,344.286 1523.42,344.286 L1552.53,344.286 C1554.44,344.286 1555.98,345.831 1555.98,347.74" id="Fill-21" fill="#005C37"></path>
            <path d="M1538.22,554.494 C1543.67,554.494 1548.09,558.913 1548.09,564.363 C1548.09,569.813 1543.67,574.232 1538.22,574.232 C1532.77,574.232 1528.35,569.813 1528.35,564.363 C1528.35,558.913 1532.77,554.494 1538.22,554.494" id="Fill-22" fill="#005C37"></path>
            <path d="M1576.04,423.643 C1558.48,403.068 1527.56,400.625 1506.98,418.184 C1486.41,435.743 1483.96,466.659 1501.52,487.236 C1516.13,504.345 1539.95,508.867 1559.39,499.827 L1581.72,506.87 L1578.78,483.624 C1591.38,465.769 1590.87,441.031 1576.04,423.643" id="Fill-23" fill="#C7FFD3"></path>
            <path d="M1496.71,361.395 C1499.52,361.395 1501.8,363.677 1501.8,366.493 C1501.8,369.309 1499.52,371.591 1496.71,371.591 C1493.89,371.591 1491.61,369.309 1491.61,366.493 C1491.61,363.677 1493.89,361.395 1496.71,361.395" id="Fill-24" fill="#62DE81"></path>
            <path d="M1482.89,361.395 C1485.71,361.395 1487.99,363.677 1487.99,366.493 C1487.99,369.309 1485.71,371.591 1482.89,371.591 C1480.07,371.591 1477.79,369.309 1477.79,366.493 C1477.79,363.677 1480.07,361.395 1482.89,361.395" id="Fill-25" fill="#005C37"></path>
            <path d="M1540.85,434.997 C1538.31,434.997 1536.24,437.059 1536.24,439.604 L1536.24,451.281 L1523.74,451.281 L1523.74,439.604 C1523.74,437.059 1521.68,434.997 1519.14,434.997 C1516.59,434.997 1514.53,437.059 1514.53,439.604 L1514.53,470.857 C1514.53,473.397 1516.59,475.46 1519.14,475.46 C1521.68,475.46 1523.74,473.397 1523.74,470.857 L1523.74,460.325 L1536.24,460.325 L1536.24,470.857 C1536.24,473.397 1538.31,475.46 1540.85,475.46 C1543.39,475.46 1545.45,473.397 1545.45,470.857 L1545.45,439.604 C1545.45,437.059 1543.39,434.997 1540.85,434.997 Z M1558.61,446.508 C1556.07,446.508 1554.01,448.458 1554.01,450.868 L1554.01,471.106 C1554.01,473.512 1556.07,475.462 1558.61,475.462 C1561.16,475.462 1563.22,473.512 1563.22,471.106 L1563.22,450.868 C1563.22,448.458 1561.16,446.508 1558.61,446.508 Z" id="Fill-26" fill="#005C37"></path>
            <path d="M1558.61,434.997 C1561.25,434.997 1563.38,437.132 1563.38,439.765 C1563.38,442.399 1561.25,444.534 1558.61,444.534 C1555.98,444.534 1553.84,442.399 1553.84,439.765 C1553.84,437.132 1555.98,434.997 1558.61,434.997" id="Fill-27" fill="#005C37"></path>
            <path d="M870.819,235.558 C868.06,238.315 863.585,238.315 860.825,235.558 C858.066,232.8 858.066,228.323 860.825,225.566 L877.878,208.514 C880.635,205.751 885.11,205.751 887.869,208.514 C890.629,211.271 890.629,215.748 887.869,218.508 L870.819,235.558 Z M805.541,235.558 C808.3,238.315 812.775,238.315 815.532,235.558 C818.292,232.8 818.292,228.323 815.532,225.566 L798.48,208.514 C795.723,205.751 791.248,205.751 788.487,208.514 C785.728,211.271 785.728,215.748 788.487,218.508 L805.541,235.558 Z" id="Fill-28" fill="#009639"></path>
            <path d="M846.079,219.125 C846.079,223.028 842.915,226.194 839.013,226.194 C835.111,226.194 831.947,223.028 831.947,219.125 L831.947,195.013 C831.947,191.111 835.111,187.945 839.013,187.945 C842.915,187.945 846.079,191.111 846.079,195.013 L846.079,219.125" id="Fill-29" fill="#005C37"></path>
            <path d="M804.741,459.427 L811.164,426.58 L863.109,426.58 L868.905,459.427 L804.741,459.427 Z M838.472,286.962 L846.308,331.375 L829.785,331.375 L838.472,286.962 Z M827.835,341.353 L848.071,341.353 L854.012,375.028 L821.248,375.028 L827.835,341.353 Z M819.296,385.005 L855.773,385.005 L861.349,416.601 L813.116,416.601 L819.297,385.005 L819.296,385.005 Z M879.642,462.855 L847.301,279.589 C846.881,277.203 844.808,275.468 842.388,275.468 L834.658,275.468 C832.272,275.468 830.219,277.154 829.761,279.497 L793.785,463.453 C793.5,464.914 793.882,466.43 794.831,467.584 C795.778,468.735 797.192,469.402 798.682,469.402 L874.901,469.402 C877.658,469.402 879.891,467.166 879.891,464.413 C879.889,463.87 879.804,463.349 879.642,462.855 Z" id="Fill-30" fill="#009639"></path>
            <path d="M838.523,244.901 C850.049,244.901 859.393,254.245 859.393,265.771 C859.393,277.296 850.049,286.64 838.523,286.64 C826.998,286.64 817.654,277.296 817.654,265.771 C817.654,254.245 826.998,244.901 838.523,244.901" id="Fill-31" fill="#005C37"></path>
            <path d="M222.777,395.747 C220.227,395.747 217.795,396.264 215.576,397.188 C215.117,387.27 206.957,379.366 196.92,379.366 C186.613,379.366 178.24,387.728 178.24,398.061 L178.248,398.349 C175.467,396.71 172.232,395.747 168.763,395.747 C159.4,395.747 151.674,402.636 150.314,411.611 C148.745,410.801 146.972,410.335 145.079,410.335 C138.838,410.335 133.791,415.347 133.708,421.569 L133.698,421.569 L133.698,433.157 L149.55,433.157 L149.55,433.118 L223.8,433.118 L223.8,433.068 C233.643,432.533 241.469,424.397 241.469,414.421 C241.469,404.112 233.096,395.747 222.777,395.747" id="Fill-32" fill="#C7FFD3"></path>
            <path d="M1662.94,570.596 C1662.92,576.49 1657.39,581.251 1650.6,581.226 C1643.81,581.192 1638.32,576.39 1638.35,570.494 L1638.98,420.668 C1639,414.775 1644.53,410.018 1651.32,410.043 C1658.11,410.073 1663.59,414.877 1663.57,420.771 L1662.94,570.596 Z M129.054,478.967 L157.345,478.967 L157.345,432.91 L129.054,432.91 L129.054,478.967 Z" id="Fill-33" fill="#009639"></path>
            <path d="M1665.13,437.407 L1665.16,436.88 L1665.47,364.422 C1665.5,356.59 1659.18,350.217 1651.35,350.186 C1643.52,350.15 1637.15,356.474 1637.11,364.302 L1636.81,436.763 L1636.83,437.29 L1665.13,437.407" id="Fill-34" fill="#62DE81"></path>
            <path d="M650.13,580.77 L894.659,580.77 L894.659,443.593 L650.13,443.593 L650.13,580.77 Z M1657.89,418.871 C1657.88,422.417 1654.98,425.29 1651.43,425.271 C1647.88,425.258 1645.01,422.364 1645.02,418.813 L1645.21,374.181 C1645.22,370.63 1648.12,367.762 1651.67,367.78 C1655.22,367.794 1658.09,370.688 1658.08,374.236 L1657.89,418.871 Z" id="Fill-35" fill="#005C37"></path>
            <polygon id="Fill-36" fill="#009639" points="313.261 469.264 321.814 469.264 321.814 370.573 313.261 370.573"></polygon>
            <path d="M292.838,513.193 C292.838,499.898 303.935,488.803 317.233,488.803 C330.528,488.803 341.625,499.898 341.625,513.193 C341.625,526.493 330.528,537.592 317.233,537.592 C303.935,537.592 292.838,526.493 292.838,513.193 Z M260.222,527.516 C261.525,533.117 263.627,538.407 266.403,543.265 C268.315,542.404 270.425,541.927 272.63,541.927 C281.112,541.927 288.196,549.005 288.196,557.494 C288.196,559.884 287.629,562.17 286.63,564.213 C291.689,567.343 297.263,569.73 303.2,571.218 C305.37,565.212 311.173,560.82 317.852,560.82 C324.474,560.82 330.246,565.139 332.459,571.06 C338.043,569.607 343.313,567.352 348.123,564.422 C347.331,562.569 346.891,560.536 346.891,558.42 C346.891,549.935 353.971,542.856 362.457,542.856 C364.498,542.856 366.452,543.269 368.25,544.009 C371.156,539.094 373.366,533.715 374.744,528.011 C369.323,525.56 365.483,520.07 365.483,513.817 C365.483,507.618 369.262,502.176 374.61,499.688 C373.08,493.629 370.616,487.946 367.372,482.803 C365.648,483.481 363.781,483.847 361.837,483.847 C353.353,483.847 346.273,476.769 346.273,468.283 C346.273,466.528 346.579,464.837 347.138,463.252 C342.342,460.461 337.113,458.317 331.576,456.963 C329.052,462.198 323.663,465.887 317.542,465.887 C311.424,465.887 306.037,462.198 303.507,456.963 C298.055,458.302 292.905,460.398 288.168,463.135 C288.981,465.009 289.435,467.063 289.435,469.215 C289.435,477.7 282.357,484.774 273.872,484.774 C271.572,484.774 269.379,484.253 267.399,483.33 C264.53,487.994 262.287,493.083 260.797,498.489 C266.466,500.833 270.542,506.453 270.542,512.892 C270.538,519.536 266.187,525.323 260.222,527.516 Z" id="Fill-37" fill="#005C37"></path>
            <path d="M270.031,343.83 C270.638,343.83 271.254,343.684 271.841,343.375 L413.302,268.937 L464.427,341.179 C465.81,343.137 468.407,343.516 470.221,342.02 C472.04,340.531 472.387,337.732 471.003,335.774 L417.821,260.631 C416.622,258.943 414.493,258.395 412.718,259.328 L268.209,335.366 C266.156,336.445 265.303,339.112 266.308,341.327 C267.026,342.906 268.499,343.826 270.031,343.83 Z M238.386,343.468 L260.732,343.468 C260.929,343.873 261.17,344.262 261.492,344.602 L282.27,366.548 L259.196,366.548 L238.386,343.468 Z M400.182,529.369 L400.244,505.575 L421.517,529.519 L400.182,529.369 Z M289.518,361.598 L272.354,343.466 L306.682,343.466 L289.518,361.598 Z M333.483,366.548 L296.762,366.548 L315.122,347.158 L333.483,366.548 Z M342.417,363.376 L323.565,343.468 L361.266,343.468 L342.417,363.376 Z M386.174,366.548 L351.348,366.548 L368.759,348.16 L386.174,366.548 Z M400.291,486.608 L400.398,443.709 L419.299,465.139 L400.291,486.608 Z M423.401,518.61 L403.422,496.126 L423.401,473.565 L423.401,518.61 Z M398.043,366.479 L376.256,343.468 L419.117,343.468 L398.043,366.479 Z M423.401,351.618 L423.401,395.25 L403.869,372.943 L423.401,351.618 Z M423.401,456.708 L405.107,435.968 L423.401,415.454 L423.401,456.708 Z M400.555,382.29 L420.778,405.389 L400.437,428.201 L400.555,382.29 Z M225.481,342.085 L254.331,374.083 C255.128,374.965 256.234,375.466 257.39,375.466 L392.131,375.466 L391.733,533.789 C391.723,536.24 393.602,538.241 395.925,538.253 L427.595,538.476 L427.623,538.476 C428.738,538.476 429.803,538.015 430.595,537.182 C431.393,536.345 431.844,535.208 431.844,534.02 L431.844,342.936 L490.708,342.936 L490.708,334.616 L428.193,334.616 L427.623,334.551 L228.543,334.551 C226.851,334.551 225.325,335.615 224.662,337.257 C223.993,338.895 224.317,340.792 225.481,342.085 Z M427.662,343.472 C427.956,343.472 428.25,343.437 428.548,343.368 C430.806,342.851 432.234,340.5 431.746,338.125 L416.524,264.091 C416.105,262.06 414.341,260.602 412.43,260.617 C410.462,260.625 408.767,262.074 408.356,264.105 L393.568,337.61 C393.089,339.997 394.53,342.337 396.783,342.841 C399.031,343.342 401.256,341.826 401.736,339.448 L412.487,286.021 L423.584,339.993 C424.01,342.061 425.74,343.472 427.662,343.472 Z" id="Fill-38" fill="#009639"></path>
            <path d="M620.623,319.015 L727.21,319.015 L727.21,333.943 L630.492,333.943 L620.623,319.015 Z M454.822,313.316 L470.613,313.316 L470.613,267.591 L454.822,267.591 L454.822,313.316 Z M482.455,313.316 L498.246,313.316 L498.246,267.591 L482.455,267.591 L482.455,313.316 Z" id="Fill-39" fill="#005C37"></path>
            <path d="M566.343,310.355 L521.932,310.355 L529.827,176.467 L558.448,176.467 L566.343,310.355 Z M625.558,310.355 L581.147,310.355 L589.042,176.467 L617.662,176.467 L625.558,310.355 Z" id="Fill-40" fill="#005C37"></path>
            <path d="M440.348,580.773 L655.311,580.773 L655.311,306.076 L440.348,306.076 L440.348,580.773 Z M559.746,198.485 L558.448,176.467 L529.827,176.467 L528.529,198.485 L559.746,198.485 Z M564.969,287.057 L563.716,265.818 L524.559,265.818 L523.307,287.057 L564.969,287.057 Z M562.435,244.063 L561.03,220.243 L527.247,220.243 L525.842,244.063 L562.435,244.063 Z M621.65,244.063 L620.244,220.243 L586.462,220.243 L585.057,244.063 L621.65,244.063 Z M624.184,287.057 L622.93,265.818 L583.774,265.818 L582.522,287.057 L624.184,287.057 Z M618.961,198.485 L617.662,176.467 L589.042,176.467 L587.743,198.485 L618.961,198.485 Z" id="Fill-41" fill="#62DE81"></path>
            <polyline id="Fill-42" fill="#005C37" points="551.21 502.057 655.42 388.563 721.452 388.563 721.452 418.485 667.802 418.485 590.418 504.122 551.21 502.057"></polyline>
            <polygon id="Fill-43" fill="#C7FFD3" points="806.162 514.161 836.858 514.161 836.858 465.79 806.162 465.79"></polygon>
            <path d="M859.395,492.458 C865.73,492.458 870.866,497.595 870.866,503.93 C870.866,510.266 865.73,515.402 859.395,515.402 C853.059,515.402 847.923,510.266 847.923,503.93 C847.923,497.595 853.059,492.458 859.395,492.458" id="Fill-44" fill="#62DE81"></path>
            <path d="M859.395,464.551 C865.73,464.551 870.866,469.687 870.866,476.022 C870.866,482.358 865.73,487.495 859.395,487.495 C853.059,487.495 847.923,482.358 847.923,476.022 C847.923,469.687 853.059,464.551 859.395,464.551" id="Fill-45" fill="#FFFFFF"></path>
            <path d="M616.561,398.477 C616.561,401.757 613.906,404.422 610.634,404.422 L602.324,404.422 C599.047,404.422 596.396,401.757 596.396,398.477 L596.396,377.987 C596.396,374.706 599.047,372.042 602.324,372.042 L610.634,372.042 C613.906,372.042 616.561,374.706 616.561,377.987 L616.561,398.477" id="Fill-46" fill="#FFFFFF"></path>
            <path d="M576.942,398.477 C576.942,401.757 574.287,404.422 571.015,404.422 L562.705,404.422 C559.428,404.422 556.778,401.757 556.778,398.477 L556.778,377.987 C556.778,374.706 559.428,372.042 562.705,372.042 L571.015,372.042 C574.287,372.042 576.942,374.706 576.942,377.987 L576.942,398.477" id="Fill-47" fill="#009639"></path>
            <path d="M537.326,398.477 C537.326,401.757 534.671,404.422 531.398,404.422 L523.089,404.422 C519.812,404.422 517.161,401.757 517.161,398.477 L517.161,377.987 C517.161,374.706 519.812,372.042 523.089,372.042 L531.398,372.042 C534.671,372.042 537.326,374.706 537.326,377.987 L537.326,398.477" id="Fill-48" fill="#FFFFFF"></path>
            <path d="M616.561,355.053 C616.561,358.333 613.906,360.998 610.634,360.998 L602.324,360.998 C599.047,360.998 596.396,358.333 596.396,355.053 L596.396,334.563 C596.396,331.282 599.047,328.617 602.324,328.617 L610.634,328.617 C613.906,328.617 616.561,331.282 616.561,334.563 L616.561,355.053 Z M497.709,398.477 C497.709,401.757 495.054,404.422 491.781,404.422 L483.472,404.422 C480.196,404.422 477.545,401.757 477.545,398.477 L477.545,377.987 C477.545,374.706 480.196,372.042 483.472,372.042 L491.781,372.042 C495.054,372.042 497.709,374.706 497.709,377.987 L497.709,398.477 Z" id="Fill-49" fill="#009639"></path>
            <path d="M576.942,355.053 C576.942,358.333 574.287,360.998 571.015,360.998 L562.705,360.998 C559.428,360.998 556.778,358.333 556.778,355.053 L556.778,334.563 C556.778,331.282 559.428,328.617 562.705,328.617 L571.015,328.617 C574.287,328.617 576.942,331.282 576.942,334.563 L576.942,355.053" id="Fill-50" fill="#FFFFFF"></path>
            <path d="M537.326,355.053 C537.326,358.333 534.671,360.998 531.398,360.998 L523.089,360.998 C519.812,360.998 517.161,358.333 517.161,355.053 L517.161,334.563 C517.161,331.282 519.812,328.617 523.089,328.617 L531.398,328.617 C534.671,328.617 537.326,331.282 537.326,334.563 L537.326,355.053" id="Fill-51" fill="#009639"></path>
            <path d="M497.709,355.053 C497.709,358.333 495.054,360.998 491.781,360.998 L483.472,360.998 C480.196,360.998 477.545,358.333 477.545,355.053 L477.545,334.563 C477.545,331.282 480.196,328.617 483.472,328.617 L491.781,328.617 C495.054,328.617 497.709,331.282 497.709,334.563 L497.709,355.053" id="Fill-52" fill="#FFFFFF"></path>
            <polyline id="Fill-53" fill="#C7FFD3" points="722.275 580.77 552.526 580.77 552.526 490.96 686.746 490.96 722.275 580.77"></polyline>
            <polygon id="Fill-54" fill="#005C37" points="614.267 545.588 652.83 545.588 652.83 506.767 614.267 506.767"></polygon>
            <path d="M315.129,179.181 L257.575,118.263 L282.99,118.144 L371.377,179.262 L315.129,179.181 Z M315.135,194.368 L257.575,255.282 L282.996,255.406 L371.379,194.291 L315.135,194.368 Z M223.45,177.44 L223.45,143.749 L235.112,143.749 L253.687,171.819 L223.45,177.44 Z" id="Fill-55" fill="#009639"></path>
            <path d="M223.596,169.806 L402.703,169.806 C411.457,169.806 418.541,176.903 418.541,185.646 C418.541,194.397 411.455,201.483 402.703,201.483 L223.596,201.483" id="Fill-56" fill="#62DE81"></path>
            <path d="M370.165,177.725 C374.536,177.725 378.079,181.271 378.079,185.646 C378.079,190.02 374.536,193.566 370.165,193.566 C365.793,193.566 362.25,190.02 362.25,185.646 C362.25,181.271 365.793,177.725 370.165,177.725" id="Fill-57" fill="#005C37"></path>
            <path d="M335.613,177.725 C339.988,177.725 343.534,181.271 343.534,185.646 C343.534,190.02 339.988,193.566 335.613,193.566 C331.238,193.566 327.692,190.02 327.692,185.646 C327.692,181.271 331.238,177.725 335.613,177.725" id="Fill-58" fill="#005C37"></path>
            <path d="M301.055,177.727 C305.428,177.727 308.974,181.272 308.974,185.646 C308.974,190.019 305.428,193.564 301.055,193.564 C296.681,193.564 293.136,190.019 293.136,185.646 C293.136,181.272 296.681,177.727 301.055,177.727" id="Fill-59" fill="#005C37"></path>
            <path d="M266.499,177.727 C270.873,177.727 274.418,181.272 274.418,185.646 C274.418,190.019 270.873,193.564 266.499,193.564 C262.126,193.564 258.58,190.019 258.58,185.646 C258.58,181.272 262.126,177.727 266.499,177.727" id="Fill-60" fill="#005C37"></path>
            <path d="M497.454,445.894 L497.454,399.182 L440.075,445.485 L497.454,445.894 Z M440.557,445.894 L440.557,399.182 L383.67,445.485 L440.557,445.894 Z M383.713,445.894 L383.713,399.182 L325.347,445.485 L383.713,445.894 Z" id="Fill-61" fill="#005C37"></path>
            <polygon id="Fill-62" fill="#009639" points="325.248 580.708 588.219 580.708 588.219 445.417 325.248 445.417"></polygon>
            <path d="M390.886,498.301 C390.886,501.096 388.626,503.352 385.831,503.352 L363.945,503.352 C361.154,503.352 358.89,501.096 358.89,498.301 L358.89,476.403 C358.89,473.621 361.152,471.356 363.945,471.356 L385.831,471.356 C388.626,471.356 390.886,473.619 390.886,476.403 L390.886,498.301" id="Fill-63" fill="#62DE81"></path>
            <path d="M549.852,498.301 C549.852,501.096 547.59,503.352 544.801,503.352 L522.913,503.352 C520.122,503.352 517.858,501.096 517.858,498.301 L517.858,476.403 C517.858,473.621 520.12,471.356 522.913,471.356 L544.801,471.356 C547.592,471.356 549.852,473.619 549.852,476.403 L549.852,498.301" id="Fill-64" fill="#FFFFFF"></path>
            <path d="M499.116,498.301 C499.116,501.096 496.858,503.352 494.063,503.352 L472.177,503.352 C469.386,503.352 467.123,501.096 467.123,498.301 L467.123,476.403 C467.123,473.621 469.385,471.356 472.177,471.356 L494.063,471.356 C496.858,471.356 499.116,473.619 499.116,476.403 L499.116,498.301" id="Fill-65" fill="#62DE81"></path>
            <path d="M445,498.301 C445,501.096 442.74,503.352 439.945,503.352 L418.059,503.352 C415.27,503.352 413.007,501.096 413.007,498.301 L413.007,476.403 C413.007,473.621 415.268,471.356 418.059,471.356 L439.945,471.356 C442.74,471.356 445,473.619 445,476.403 L445,498.301" id="Fill-66" fill="#FFFFFF"></path>
            <polygon id="Fill-67" fill="#005C37" points="464.018 580.613 549.552 580.613 549.552 526.294 464.018 526.294"></polygon>
            <polyline id="Fill-68" fill="#62DE81" points="554.212 559.501 544.208 559.644 531.627 590.798 564.785 590.798 554.212 559.501"></polyline>
            <path d="M549.206,540.067 C555.126,540.067 559.924,544.866 559.924,550.785 C559.924,556.705 555.126,561.503 549.206,561.503 C543.287,561.503 538.489,556.705 538.489,550.785 C538.489,544.866 543.287,540.067 549.206,540.067" id="Fill-69" fill="#C7FFD3"></path>
            <path d="M785.978,580.77 C785.978,580.77 755.384,472.209 760.319,161.332 L698.591,161.332 C703.526,472.209 672.931,580.77 672.931,580.77 L785.978,580.77" id="Fill-70" fill="#009639"></path>
            <path d="M760.764,269.892 L698.589,269.892 C694.772,269.892 691.681,272.983 691.681,276.801 C691.681,280.614 694.772,283.709 698.589,283.709 L760.764,283.709 C764.582,283.709 767.673,280.614 767.673,276.801 C767.673,272.985 764.582,269.892 760.764,269.892 Z M760.764,198.834 L698.589,198.834 C694.772,198.834 691.681,201.925 691.681,205.743 C691.681,209.556 694.772,212.651 698.589,212.651 L760.764,212.651 C764.582,212.651 767.673,209.556 767.673,205.743 C767.673,201.928 764.582,198.834 760.764,198.834 Z M760.764,350.819 L698.589,350.819 C694.772,350.819 691.681,353.91 691.681,357.728 C691.681,361.541 694.772,364.636 698.589,364.636 L760.764,364.636 C764.582,364.636 767.673,361.541 767.673,357.728 C767.673,353.912 764.582,350.819 760.764,350.819 Z M766.686,443.589 L692.668,443.589 C688.85,443.589 685.76,446.68 685.76,450.497 C685.76,454.311 688.85,457.405 692.668,457.405 L766.686,457.405 C770.503,457.405 773.594,454.311 773.594,450.497 C773.594,446.682 770.503,443.589 766.686,443.589 Z M774.581,518.594 L684.772,518.594 C680.955,518.594 677.864,521.685 677.864,525.502 C677.864,529.316 680.955,532.411 684.772,532.411 L774.581,532.411 C778.399,532.411 781.49,529.316 781.49,525.502 C781.49,521.687 778.399,518.594 774.581,518.594 Z" id="Fill-71" fill="#62DE81"></path>
            <path d="M633.642,538.691 C639.562,538.691 644.36,543.49 644.36,549.409 C644.36,555.329 639.562,560.127 633.642,560.127 C627.723,560.127 622.925,555.329 622.925,549.409 C622.925,543.49 627.723,538.691 633.642,538.691" id="Fill-72" fill="#009639"></path>
            <polygon id="Fill-73" fill="#005C37" points="623.639 590.281 644.074 590.281 644.074 559.987 623.639 559.987"></polygon>
            <polyline id="Fill-74" fill="#C7FFD3" points="425.422 557.693 415.418 557.835 402.837 588.988 435.995 588.988 425.422 557.693"></polyline>
            <path d="M420.416,538.255 C426.335,538.255 431.134,543.054 431.134,548.973 C431.134,554.893 426.335,559.691 420.416,559.691 C414.497,559.691 409.698,554.893 409.698,548.973 C409.698,543.054 414.497,538.255 420.416,538.255" id="Fill-75" fill="#005C37"></path>
            <path d="M759.308,540.829 C765.227,540.829 770.026,545.627 770.026,551.547 C770.026,557.466 765.227,562.265 759.308,562.265 C753.388,562.265 748.59,557.466 748.59,551.547 C748.59,545.627 753.388,540.829 759.308,540.829" id="Fill-76" fill="#C7FFD3"></path>
            <polygon id="Fill-77" fill="#005C37" points="749.304 592.421 769.741 592.421 769.741 562.126 749.304 562.126"></polygon>
            <polygon id="Fill-78" fill="#62DE81" points="61.49 502.083 115.804 502.083 115.804 473.94 61.49 473.94"></polygon>
            <polygon id="Fill-79" fill="#005C37" points="115.123 502.083 169.385 502.083 169.385 473.94 115.123 473.94"></polygon>
            <polygon id="Fill-80" fill="#62DE81" points="168.693 502.083 222.965 502.083 222.965 473.94 168.693 473.94"></polygon>
            <polygon id="Fill-81" fill="#005C37" points="61.49 529.17 115.804 529.17 115.804 501.031 61.49 501.031"></polygon>
            <polygon id="Fill-82" fill="#62DE81" points="115.123 529.17 169.385 529.17 169.385 501.031 115.123 501.031"></polygon>
            <polygon id="Fill-83" fill="#005C37" points="168.693 529.17 222.965 529.17 222.965 501.031 168.693 501.031"></polygon>
            <polygon id="Fill-84" fill="#C7FFD3" points="61.49 556.258 115.804 556.258 115.804 528.131 61.49 528.131"></polygon>
            <polygon id="Fill-85" fill="#005C37" points="115.123 556.258 169.385 556.258 169.385 528.131 115.123 528.131"></polygon>
            <polygon id="Fill-86" fill="#C7FFD3" points="168.693 556.258 222.965 556.258 222.965 528.131 168.693 528.131"></polygon>
            <polyline id="Fill-87" fill="#009639" points="15.865 537.393 15.865 526.302 54.09 526.302 54.09 537.422 61.467 537.43 61.528 553.645 197.749 553.645 197.749 537.385 247.094 537.385 236.227 579.062 34.01 579.062 0.949 537.385 15.865 537.393"></polyline>
            <path d="M1140.08,372.681 L1259.49,372.681 L1259.49,306.558 L1140.08,306.558 L1140.08,372.681 Z M209.904,554.667 C209.904,559.776 214.004,563.913 219.054,563.913 C224.106,563.913 228.217,559.776 228.217,554.667 C228.217,549.551 224.106,545.393 219.054,545.393 C214.004,545.393 209.904,549.551 209.904,554.667 Z" id="Fill-88" fill="#005C37"></path>
            <polygon id="Fill-89" fill="#009639" points="1247.96 580.588 1409.88 580.588 1409.88 278.091 1247.96 278.091"></polygon>
            <path d="M1372.3,338.625 C1379.93,338.625 1386.12,344.811 1386.12,352.441 C1386.12,360.072 1379.93,366.258 1372.3,366.258 C1364.67,366.258 1358.48,360.072 1358.48,352.441 C1358.48,344.811 1364.67,338.625 1372.3,338.625" id="Fill-90" fill="#FFFFFF"></path>
            <path d="M1328.87,338.625 C1336.51,338.625 1342.69,344.811 1342.69,352.441 C1342.69,360.072 1336.51,366.258 1328.87,366.258 C1321.24,366.258 1315.06,360.072 1315.06,352.441 C1315.06,344.811 1321.24,338.625 1328.87,338.625" id="Fill-91" fill="#C7FFD3"></path>
            <path d="M1285.45,338.625 C1293.08,338.625 1299.27,344.811 1299.27,352.441 C1299.27,360.072 1293.08,366.258 1285.45,366.258 C1277.82,366.258 1271.63,360.072 1271.63,352.441 C1271.63,344.811 1277.82,338.625 1285.45,338.625" id="Fill-92" fill="#FFFFFF"></path>
            <path d="M1328.87,431.395 C1336.51,431.395 1342.69,437.581 1342.69,445.211 C1342.69,452.842 1336.51,459.028 1328.87,459.028 C1321.24,459.028 1315.06,452.842 1315.06,445.211 C1315.06,437.581 1321.24,431.395 1328.87,431.395" id="Fill-93" fill="#C7FFD3"></path>
            <path d="M1372.3,384.022 C1379.93,384.022 1386.12,390.208 1386.12,397.839 C1386.12,405.47 1379.93,411.656 1372.3,411.656 C1364.67,411.656 1358.48,405.47 1358.48,397.839 C1358.48,390.208 1364.67,384.022 1372.3,384.022" id="Fill-94" fill="#C7FFD3"></path>
            <path d="M1328.87,384.022 C1336.51,384.022 1342.69,390.208 1342.69,397.839 C1342.69,405.47 1336.51,411.656 1328.87,411.656 C1321.24,411.656 1315.06,405.47 1315.06,397.839 C1315.06,390.208 1321.24,384.022 1328.87,384.022" id="Fill-95" fill="#FFFFFF"></path>
            <polygon id="Fill-96" fill="#009639" points="1001.24 580.59 1163.15 580.59 1163.15 277.487 1001.24 277.487"></polygon>
            <path d="M1084.48,240.229 C1102.68,240.229 1117.43,254.985 1117.43,273.187 C1117.43,291.388 1102.68,306.144 1084.48,306.144 C1066.27,306.144 1051.52,291.388 1051.52,273.187 C1051.52,254.985 1066.27,240.229 1084.48,240.229" id="Fill-97" fill="#62DE81"></path>
            <path d="M1328.15,246.53 C1328.15,246.53 1340.23,253.646 1350.46,245.503 L1359.03,254.273 C1359.03,254.273 1347.75,257.72 1357.88,287.384 C1357.88,287.384 1362.11,299.677 1351.83,309.528 C1347.3,313.865 1336.57,311.717 1328.22,319.863 L1328.09,319.98 L1327.96,319.863 C1319.6,311.717 1308.87,313.865 1304.34,309.528 C1294.06,299.679 1298.29,287.384 1298.29,287.384 C1308.42,257.72 1297.14,254.273 1297.14,254.273 L1305.71,245.503 C1315.94,253.646 1328.05,246.514 1328.05,246.514 L1328.15,246.53" id="Fill-98" fill="#005C37"></path>
            <path d="M1135.48,351.632 C1135.48,354.917 1132.83,357.581 1129.57,357.581 L1121.29,357.581 C1118.02,357.581 1115.38,354.917 1115.38,351.632 L1115.38,331.146 C1115.38,327.861 1118.02,325.201 1121.29,325.201 L1129.57,325.201 C1132.83,325.201 1135.48,327.861 1135.48,331.146 L1135.48,351.632 Z M1327.31,279.672 L1329.54,279.672 C1331.29,279.672 1332.53,279.369 1333.24,278.759 C1333.95,278.148 1334.3,277.371 1334.3,276.414 C1334.3,275.488 1334,274.707 1333.38,274.063 C1332.76,273.419 1331.6,273.1 1329.9,273.1 L1327.31,273.1 L1327.31,279.672 Z M1318.15,267.105 L1333.3,267.105 C1336.59,267.105 1339.07,267.891 1340.71,269.46 C1342.35,271.025 1343.17,273.257 1343.17,276.155 C1343.17,279.127 1342.28,281.457 1340.49,283.133 C1338.7,284.806 1335.97,285.641 1332.29,285.641 L1327.31,285.641 L1327.31,296.582 L1318.16,296.582 L1318.16,267.105 L1318.15,267.105 Z" id="Fill-99" fill="#FFFFFF"></path>
            <path d="M1093.79,452.325 C1093.79,455.605 1091.15,458.27 1087.89,458.27 L1079.61,458.27 C1076.35,458.27 1073.71,455.605 1073.71,452.325 L1073.71,431.838 C1073.71,428.55 1076.35,425.885 1079.61,425.885 L1087.89,425.885 C1091.15,425.885 1093.79,428.55 1093.79,431.838 L1093.79,452.325" id="Fill-100" fill="#62DE81"></path>
            <path d="M1093.79,403.311 C1093.79,406.595 1091.15,409.256 1087.89,409.256 L1079.61,409.256 C1076.35,409.256 1073.71,406.595 1073.71,403.311 L1073.71,382.829 C1073.71,379.54 1076.35,376.879 1079.61,376.879 L1087.89,376.879 C1091.15,376.879 1093.79,379.54 1093.79,382.829 L1093.79,403.311" id="Fill-101" fill="#FFFFFF"></path>
            <path d="M1093.79,351.632 C1093.79,354.917 1091.15,357.581 1087.89,357.581 L1079.61,357.581 C1076.35,357.581 1073.71,354.917 1073.71,351.632 L1073.71,331.146 C1073.71,327.861 1076.35,325.201 1079.61,325.201 L1087.89,325.201 C1091.15,325.201 1093.79,327.861 1093.79,331.146 L1093.79,351.632" id="Fill-102" fill="#62DE81"></path>
            <path d="M1052.12,452.325 C1052.12,455.605 1049.48,458.27 1046.22,458.27 L1037.93,458.27 C1034.67,458.27 1032.03,455.605 1032.03,452.325 L1032.03,431.838 C1032.03,428.55 1034.67,425.885 1037.93,425.885 L1046.22,425.885 C1049.48,425.885 1052.12,428.55 1052.12,431.838 L1052.12,452.325" id="Fill-103" fill="#FFFFFF"></path>
            <path d="M1052.12,403.311 C1052.12,406.595 1049.48,409.256 1046.22,409.256 L1037.93,409.256 C1034.67,409.256 1032.03,406.595 1032.03,403.311 L1032.03,382.829 C1032.03,379.54 1034.67,376.879 1037.93,376.879 L1046.22,376.879 C1049.48,376.879 1052.12,379.54 1052.12,382.829 L1052.12,403.311" id="Fill-104" fill="#62DE81"></path>
            <path d="M1052.12,351.632 C1052.12,354.917 1049.48,357.581 1046.22,357.581 L1037.93,357.581 C1034.67,357.581 1032.03,354.917 1032.03,351.632 L1032.03,331.146 C1032.03,327.861 1034.67,325.201 1037.93,325.201 L1046.22,325.201 C1049.48,325.201 1052.12,327.861 1052.12,331.146 L1052.12,351.632" id="Fill-105" fill="#FFFFFF"></path>
            <path d="M1113.57,397.455 L1204.65,332.372 L1295.63,397.455 L1113.57,397.455 Z M1119.53,580.535 L1289.42,580.535 L1289.42,405.824 L1119.53,405.824 L1119.53,580.535 Z" id="Fill-106" fill="#62DE81"></path>
            <polygon id="Fill-107" fill="#005C37" points="1106.5 410.624 1301.05 410.624 1301.05 395.052 1106.5 395.052"></polygon>
            <path d="M1205.09,348.687 C1215.57,348.687 1224.07,357.182 1224.07,367.662 C1224.07,378.141 1215.57,386.636 1205.09,386.636 C1194.61,386.636 1186.12,378.141 1186.12,367.662 C1186.12,357.182 1194.61,348.687 1205.09,348.687" id="Fill-108" fill="#FFFFFF"></path>
            <polygon id="Fill-109" fill="#009639" points="1173.48 570.496 1236.88 570.496 1236.88 506.484 1173.48 506.484"></polygon>
            <polygon id="Fill-110" fill="#005C37" points="1167.72 514.581 1241.93 514.581 1241.93 499.499 1167.72 499.499"></polygon>
            <path d="M1240.9,236.079 C1241.72,233.142 1242.2,230.08 1242.2,226.889 C1242.2,207.79 1226.54,192.305 1207.23,192.305 C1187.92,192.305 1172.27,207.792 1172.27,226.889 C1172.27,230.046 1172.74,233.084 1173.56,235.998 L1173.71,236.345 L1174.08,237.287 L1200.86,288.521 C1201.89,291.393 1204.32,293.406 1207.14,293.406 C1209.7,293.406 1211.91,291.729 1213.07,289.277 L1213.08,289.281 L1240.74,236.404 L1240.82,236.404 L1240.89,236.138 L1240.91,236.081 L1240.9,236.081 L1240.9,236.079" id="Fill-111" fill="#62DE81"></path>
            <path d="M1207.71,212 C1216.46,212 1223.55,219.095 1223.55,227.848 C1223.55,236.6 1216.46,243.696 1207.71,243.696 C1198.95,243.696 1191.86,236.6 1191.86,227.848 C1191.86,219.095 1198.95,212 1207.71,212" id="Fill-112" fill="#005C37"></path>
            <path d="M1468.1,425.181 L1368.05,425.181 L1368.05,580.58 L1468.1,580.58 C1475.71,580.58 1481.89,574.635 1481.89,567.306 L1481.89,438.449 C1481.89,431.12 1475.71,425.181 1468.1,425.181" id="Fill-113" fill="#005C37"></path>
            <path d="M1459.57,553.363 C1459.57,557.08 1456.56,560.098 1452.84,560.098 L1400.8,560.098 C1397.09,560.098 1394.08,557.08 1394.08,553.363 C1394.08,549.642 1397.09,546.632 1400.8,546.632 L1452.84,546.632 C1456.56,546.632 1459.57,549.642 1459.57,553.363 Z M1436.07,526.921 C1437.67,522.064 1438.8,517.307 1439.54,512.712 C1445.96,511.761 1451.17,510.365 1454.7,509.23 C1451.26,517.441 1444.48,523.886 1436.07,526.921 Z M1418.96,528.193 C1417.11,523.116 1415.84,518.108 1415.01,513.269 C1418.43,513.624 1421.76,513.804 1424.92,513.804 C1428.72,513.804 1432.29,513.577 1435.62,513.217 C1434.79,518.075 1433.51,523.09 1431.66,528.191 C1429.61,528.611 1427.48,528.83 1425.31,528.83 C1423.13,528.832 1421.01,528.613 1418.96,528.193 Z M1395.91,509.207 C1401.11,510.914 1406.19,512.051 1411.08,512.773 C1411.82,517.353 1412.95,522.092 1414.55,526.925 C1406.14,523.886 1399.35,517.434 1395.91,509.207 Z M1414.56,466.984 C1413.33,470.747 1411.75,476.595 1410.76,483.904 C1405.62,484.68 1400.28,485.931 1394.81,487.806 C1397.72,478.123 1405.11,470.393 1414.56,466.984 Z M1431.64,465.713 C1432.7,468.682 1434.69,475.004 1435.91,483.458 C1429.66,482.763 1422.47,482.568 1414.72,483.397 C1415.94,474.968 1417.92,468.678 1418.98,465.713 C1421.03,465.297 1423.14,465.078 1425.31,465.078 C1427.47,465.078 1429.59,465.297 1431.64,465.713 Z M1455.8,487.777 C1452.35,486.612 1446.83,485.039 1439.87,483.983 C1438.89,476.638 1437.29,470.768 1436.06,466.986 C1445.5,470.389 1452.89,478.107 1455.8,487.777 Z M1440.32,487.942 C1448.26,489.222 1454.12,491.142 1456.75,492.109 C1456.99,493.694 1457.16,495.309 1457.16,496.959 C1457.16,499.649 1456.79,502.253 1456.15,504.75 C1453.27,505.778 1447.62,507.548 1440.11,508.737 C1441,501.177 1440.9,494.144 1440.32,487.942 Z M1414.24,487.275 C1422.39,486.35 1429.93,486.616 1436.4,487.397 C1437.07,493.852 1437.21,501.288 1436.2,509.271 C1429.83,510.027 1422.43,510.282 1414.43,509.388 C1413.41,501.311 1413.55,493.789 1414.24,487.275 Z M1393.46,496.959 C1393.46,495.317 1393.62,493.72 1393.86,492.137 C1399.47,490.055 1405,488.667 1410.31,487.818 C1409.71,494.083 1409.61,501.203 1410.52,508.859 C1405.33,508.05 1399.94,506.719 1394.45,504.726 C1393.83,502.237 1393.46,499.641 1393.46,496.959 Z M1459.51,506.751 C1460.4,503.636 1460.91,500.36 1460.91,496.959 C1460.91,480.474 1449.66,466.619 1434.46,462.555 L1434.36,462.324 L1434.06,462.455 C1431.25,461.742 1428.33,461.321 1425.31,461.321 C1422.29,461.321 1419.36,461.742 1416.56,462.455 L1416.26,462.324 L1416.16,462.555 C1400.96,466.611 1389.71,480.474 1389.71,496.959 C1389.71,500.385 1390.22,503.686 1391.12,506.82 L1390.89,507.41 L1391.32,507.568 C1394.94,519.157 1404.35,528.189 1416.13,531.339 L1416.24,531.651 L1416.66,531.477 C1419.44,532.178 1422.32,532.586 1425.31,532.586 C1428.3,532.586 1431.19,532.178 1433.96,531.477 L1434.39,531.651 L1434.5,531.339 C1446.27,528.189 1455.67,519.172 1459.29,507.596 L1459.79,507.385 L1459.51,506.751 Z" id="Fill-114" fill="#FFFFFF"></path>
            <path d="M931.135,396.108 L914.066,454.976 L950.285,465.484 L922.077,569.631 C920.844,574.193 923.534,578.886 928.095,580.124 C932.657,581.358 937.355,578.664 938.588,574.102 L966.719,470.241 L967.568,470.488 L1005.18,481.397 L1022.25,422.526 L931.135,396.108 Z M1220.67,474.733 C1220.67,478.867 1217.32,482.22 1213.18,482.22 L1198.82,482.22 C1194.69,482.22 1191.34,478.867 1191.34,474.733 L1191.34,438.388 C1191.34,434.25 1194.69,430.901 1198.82,430.901 L1213.18,430.901 C1217.32,430.901 1220.67,434.25 1220.67,438.388 L1220.67,474.733 Z M1169.35,474.733 C1169.35,478.867 1166,482.22 1161.86,482.22 L1147.51,482.22 C1143.37,482.22 1140.02,478.867 1140.02,474.733 L1140.02,438.388 C1140.02,434.25 1143.37,430.901 1147.51,430.901 L1161.86,430.901 C1166,430.901 1169.35,434.25 1169.35,438.388 L1169.35,474.733 Z M1271.99,474.733 C1271.99,478.867 1268.64,482.22 1264.5,482.22 L1250.14,482.22 C1246.01,482.22 1242.66,478.867 1242.66,474.733 L1242.66,438.388 C1242.66,434.25 1246.01,430.901 1250.14,430.901 L1264.5,430.901 C1268.64,430.901 1271.99,434.25 1271.99,438.388 L1271.99,474.733 Z" id="Fill-115" fill="#005C37"></path>
            <path d="M1006.73,479.445 C1005.66,483.138 1001.83,485.278 998.19,484.222 C994.54,483.166 992.46,479.311 993.53,475.622 L1009.42,420.807 C1010.5,417.106 1014.32,414.97 1017.97,416.026 C1021.61,417.082 1023.69,420.937 1022.62,424.634 L1006.73,479.445" id="Fill-116" fill="#62DE81"></path>
            <path d="M1107.68,580.535 L1301.26,580.535 L1301.26,564.223 L1107.68,564.223 L1107.68,580.535 Z M1045.16,564.223 L1045.16,550.406 L961.621,550.406 L961.621,564.223 L948.298,564.223 L948.298,580.535 L1056.51,580.535 L1056.51,564.223 L1045.16,564.223 Z" id="Fill-117" fill="#005C37"></path>
            <path d="M1099.93,509.153 C1100.94,506.731 1101.5,504.081 1101.5,501.297 C1101.5,490.017 1092.36,480.876 1081.08,480.876 C1069.8,480.876 1060.66,490.017 1060.66,501.297 C1060.66,504.081 1061.22,506.733 1062.23,509.153 C1055.89,514.512 1051.86,522.508 1051.86,531.456 C1051.86,547.593 1064.94,560.674 1081.08,560.674 C1097.21,560.674 1110.3,547.593 1110.3,531.456 C1110.3,522.506 1106.26,514.51 1099.93,509.153" id="Fill-118" fill="#C7FFD3"></path>
            <path d="M1085.15,584.625 C1085.15,586.788 1083.4,588.544 1081.24,588.544 C1079.07,588.544 1077.32,586.786 1077.32,584.625 L1077.32,531.459 C1077.32,529.292 1079.07,527.543 1081.24,527.543 C1083.4,527.543 1085.15,529.294 1085.15,531.459 L1085.15,584.625" id="Fill-119" fill="#005C37"></path>
            <path d="M1349.17,508.289 C1350.18,505.867 1350.74,503.216 1350.74,500.433 C1350.74,489.152 1341.59,480.012 1330.31,480.012 C1319.04,480.012 1309.89,489.152 1309.89,500.433 C1309.89,503.216 1310.45,505.869 1311.46,508.289 C1305.13,513.647 1301.1,521.644 1301.1,530.591 C1301.1,546.729 1314.18,559.81 1330.31,559.81 C1346.45,559.81 1359.53,546.729 1359.53,530.591 C1359.53,521.644 1355.5,513.647 1349.17,508.289" id="Fill-120" fill="#C7FFD3"></path>
            <path d="M1334.39,583.76 C1334.39,585.923 1332.64,587.68 1330.47,587.68 C1328.31,587.68 1326.55,585.921 1326.55,583.76 L1326.55,530.595 C1326.55,528.428 1328.31,526.679 1330.47,526.679 C1332.64,526.679 1334.39,528.43 1334.39,530.595 L1334.39,583.76" id="Fill-121" fill="#005C37"></path>
            <path d="M1148.73,542.925 C1154.64,542.925 1159.44,547.724 1159.44,553.643 C1159.44,559.563 1154.64,564.361 1148.73,564.361 C1142.81,564.361 1138.01,559.563 1138.01,553.643 C1138.01,547.724 1142.81,542.925 1148.73,542.925" id="Fill-122" fill="#009639"></path>
            <polygon id="Fill-123" fill="#C7FFD3" points="1138.72 594.517 1159.16 594.517 1159.16 564.223 1138.72 564.223"></polygon>
            <polyline id="Fill-124" fill="#009639" points="1267.66 563.737 1257.66 563.879 1245.08 595.032 1278.24 595.032 1267.66 563.737"></polyline>
            <path d="M1262.66,544.299 C1268.58,544.299 1273.38,549.098 1273.38,555.017 C1273.38,560.936 1268.58,565.735 1262.66,565.735 C1256.74,565.735 1251.94,560.936 1251.94,555.017 C1251.94,549.098 1256.74,544.299 1262.66,544.299" id="Fill-125" fill="#C7FFD3"></path>
            <path d="M1002.5,543.749 C1008.42,543.749 1013.22,548.547 1013.22,554.466 C1013.22,560.386 1008.42,565.184 1002.5,565.184 C996.58,565.184 991.78,560.386 991.78,554.466 C991.78,548.547 996.58,543.749 1002.5,543.749" id="Fill-126" fill="#62DE81"></path>
            <path d="M1431.33,563.244 L1421.32,563.386 L1408.75,594.539 L1441.9,594.539 L1431.33,563.244 Z M992.5,595.338 L1012.93,595.338 L1012.93,565.044 L992.5,565.044 L992.5,595.338 Z" id="Fill-127" fill="#009639"></path>
            <path d="M1426.32,543.804 C1432.24,543.804 1437.04,548.603 1437.04,554.523 C1437.04,560.444 1432.24,565.243 1426.32,565.243 C1420.4,565.243 1415.6,560.444 1415.6,554.523 C1415.6,548.603 1420.4,543.804 1426.32,543.804" id="Fill-128" fill="#C7FFD3"></path>
            <path d="M1089.66,284.36 C1089.12,284.958 1088.25,285.387 1087.16,285.687 L1087.16,278.474 C1088.41,278.956 1089.34,279.469 1089.8,280.016 C1090.32,280.64 1090.59,281.319 1090.59,282.059 C1090.59,282.908 1090.28,283.673 1089.66,284.36 Z M1081.21,267.421 C1080.81,266.912 1080.61,266.308 1080.61,265.613 C1080.61,264.954 1080.81,264.375 1081.2,263.886 C1081.52,263.493 1082.09,263.162 1082.81,262.867 L1082.81,268.489 C1082.1,268.185 1081.53,267.837 1081.21,267.421 Z M1096.28,273.609 C1094.74,272.245 1091.67,270.944 1087.16,269.71 L1087.16,263.049 C1087.73,263.396 1088.2,263.74 1088.48,264.081 C1088.84,264.51 1089.23,265.283 1089.68,266.398 L1098.43,265.011 C1097.86,262.502 1096.65,260.524 1094.79,259.078 C1093.01,257.702 1090.46,256.896 1087.17,256.634 L1087.17,253.786 C1087.17,252.513 1086.2,251.48 1084.99,251.48 C1083.79,251.48 1082.82,252.513 1082.82,253.786 L1082.82,256.642 C1079.21,256.908 1076.44,257.915 1074.58,259.707 C1072.62,261.584 1071.65,263.917 1071.65,266.712 C1071.65,268.751 1072.13,270.486 1073.11,271.905 C1074.08,273.325 1075.23,274.357 1076.55,275 C1077.81,275.61 1079.92,276.327 1082.82,277.148 L1082.82,285.31 C1081.99,284.844 1081.33,284.338 1080.93,283.768 C1080.45,283.077 1080.07,281.956 1079.79,280.403 L1070.28,281.51 C1070.57,283.079 1070.99,284.414 1071.56,285.519 C1072.12,286.626 1072.92,287.659 1073.97,288.614 C1075.01,289.569 1076.25,290.317 1077.69,290.862 C1079.01,291.359 1080.75,291.703 1082.82,291.91 L1082.82,295.106 C1082.82,296.379 1083.8,297.411 1084.99,297.411 C1085.72,297.411 1086.34,297.006 1086.73,296.424 L1086.74,296.424 L1086.74,296.42 C1086.99,296.043 1087.17,295.607 1087.17,295.106 L1087.17,291.938 C1088.9,291.841 1090.41,291.61 1091.63,291.213 C1092.97,290.781 1094.22,290.088 1095.41,289.131 C1096.59,288.172 1097.56,286.979 1098.33,285.55 C1099.09,284.12 1099.47,282.55 1099.47,280.843 C1099.46,277.918 1098.4,275.51 1096.29,273.609 L1096.28,273.609 Z" id="Fill-129" fill="#005C37"></path>
            <path d="M2216.14,259.903 L2230.94,236.876 L2242.92,244.578 L2228.12,267.604 L2216.14,259.903 Z M2247.83,244.574 L2259.81,236.872 L2274.61,259.895 L2262.63,267.597 L2247.83,244.574 Z" id="Fill-130" fill="#62DE81"></path>
            <path d="M2286.22,264.505 C2286.22,267.991 2283.39,270.816 2279.91,270.816 L2210.72,270.816 C2207.24,270.816 2204.41,267.991 2204.41,264.505 C2204.41,261.024 2207.24,258.199 2210.72,258.199 L2279.91,258.199 C2283.39,258.199 2286.22,261.024 2286.22,264.505 Z M2237.78,183.924 L2252.03,183.924 L2252.03,162.358 L2237.78,162.358 L2237.78,183.924 Z" id="Fill-131" fill="#009639"></path>
            <path d="M2299.03,154.621 L2190.78,154.621 C2187.29,154.621 2184.47,157.449 2184.47,160.935 C2184.47,164.413 2187.29,167.242 2190.78,167.242 L2299.03,167.242 C2302.52,167.242 2305.34,164.413 2305.34,160.935 C2305.34,157.449 2302.52,154.621 2299.03,154.621" id="Fill-132" fill="#62DE81"></path>
            <polyline id="Fill-133" fill="#009639" points="2166.97 218.52 2215.81 225.846 2215.81 200.41 2166.97 207.732 2166.97 218.52"></polyline>
            <path d="M2167.48,193.083 C2178.43,193.083 2187.32,201.966 2187.32,212.924 C2187.32,223.881 2178.43,232.765 2167.48,232.765 C2156.52,232.765 2147.64,223.881 2147.64,212.924 C2147.64,201.966 2156.52,193.083 2167.48,193.083" id="Fill-134" fill="#62DE81"></path>
            <path d="M2245.11,173.955 C2266.46,173.955 2283.77,191.265 2283.77,212.618 C2283.77,233.971 2266.46,251.281 2245.11,251.281 C2223.75,251.281 2206.44,233.971 2206.44,212.618 C2206.44,191.265 2223.75,173.955 2245.11,173.955" id="Fill-135" fill="#009639"></path>
            <path d="M917.749,453.959 C916.677,457.652 912.854,459.792 909.21,458.74 C905.562,457.68 903.478,453.825 904.55,450.132 L920.445,395.319 C921.517,391.618 925.34,389.482 928.988,390.542 C932.632,391.594 934.716,395.449 933.644,399.142 L917.749,453.959 Z M2241.45,212.006 C2241.45,223.128 2250.46,232.147 2261.59,232.147 L2278.44,232.147 C2281.81,226.413 2283.78,219.755 2283.78,212.618 C2283.78,204.969 2281.52,197.863 2277.69,191.863 L2261.6,191.863 C2250.46,191.863 2241.45,200.883 2241.45,212.006 Z" id="Fill-136" fill="#62DE81"></path>
            <polygon id="Fill-137" fill="#005C37" points="1816.79 390.848 1929.97 390.848 1929.97 231.539 1816.79 231.539"></polygon>
            <polyline id="Fill-138" fill="#009639" points="1737.13 230.901 1737.13 579.421 1873.54 579.421 1873.54 277.92 1737.13 230.901"></polyline>
            <path d="M1997.62,273.384 L2011.94,273.384 L2011.94,252.69 L1997.62,252.69 L1997.62,273.384 Z M2062.76,273.384 L2077.07,273.384 L2077.07,252.69 L2062.76,252.69 L2062.76,273.384 Z" id="Fill-139" fill="#005C37"></path>
            <path d="M2101.17,247.645 C2101.17,252.58 2097.17,256.577 2092.24,256.577 L1980.12,256.577 C1975.18,256.577 1971.18,252.58 1971.18,247.645 L1971.18,180.172 C1971.18,175.241 1975.18,171.245 1980.12,171.245 L2092.24,171.245 C2097.17,171.245 2101.17,175.241 2101.17,180.172 L2101.17,247.645" id="Fill-140" fill="#62DE81"></path>
            <polygon id="Fill-141" fill="#009639" points="1988.21 237.117 2035.49 237.117 2035.49 189.838 1988.21 189.838"></polygon>
            <path d="M2086.78,199.683 C2086.78,201.464 2085.34,202.918 2083.55,202.918 L2051.8,202.918 C2050.02,202.918 2048.57,201.466 2048.57,199.683 C2048.57,197.895 2050.01,196.444 2051.8,196.444 L2083.55,196.444 C2085.34,196.444 2086.78,197.895 2086.78,199.683 Z M2086.78,211.813 C2086.78,213.601 2085.34,215.047 2083.55,215.047 L2051.8,215.047 C2050.02,215.047 2048.57,213.603 2048.57,211.813 C2048.57,210.028 2050.01,208.577 2051.8,208.577 L2083.55,208.577 C2085.34,208.577 2086.78,210.026 2086.78,211.813 Z M2086.78,223.943 C2086.78,225.732 2085.34,227.179 2083.55,227.179 L2051.8,227.179 C2050.02,227.179 2048.57,225.734 2048.57,223.943 C2048.57,222.155 2050.01,220.708 2051.8,220.708 L2083.55,220.708 C2085.34,220.708 2086.78,222.155 2086.78,223.943 Z" id="Fill-142" fill="#005C37"></path>
            <polyline id="Fill-143" fill="#FFFFFF" points="2013.26 203.87 2013.49 203.345 2013.74 202.887 2013.97 202.555 2014.22 202.212 2014.48 201.868 2014.77 201.527 2015.1 201.191 2015.46 200.885 2015.84 200.569 2016.3 200.25 2016.68 200.031 2017.17 199.764 2017.75 199.518 2018.43 199.283 2018.93 199.141 2019.27 199.077 2019.62 199.016 2019.9 198.982 2020.15 198.963 2020.41 198.943 2020.68 198.935 2021 198.931 2021.38 198.951 2021.74 198.982 2022.2 199.04 2022.59 199.113 2023 199.206 2023.38 199.316 2023.7 199.425 2024.14 199.598 2024.49 199.752 2024.8 199.914 2025.16 200.12 2025.54 200.354 2025.82 200.562 2026.14 200.804 2026.36 201.002 2026.65 201.268 2026.89 201.507 2027.16 201.815 2027.36 202.054 2027.61 202.385 2027.82 202.701 2027.99 202.976 2028.14 203.25 2028.27 203.5 2028.41 203.824 2028.56 204.189 2028.65 204.464 2028.78 204.873 2028.85 205.188 2028.91 205.496 2028.95 205.731 2028.98 205.972 2029.01 206.39 2029.05 206.807 2029.08 207.182 2029.1 207.458 2029.12 207.891 2029.11 208.192 2029.11 208.497 2029.09 208.771 2029.08 209.079 2029.03 209.556 2028.96 210.208 2028.89 210.593 2028.77 211.19 2028.69 211.572 2028.57 212.081 2028.46 212.513 2028.37 212.821 2028.23 213.293 2028.09 213.686 2027.87 214.305 2027.65 214.85 2027.44 215.348 2027.24 215.786 2027 216.279 2026.84 216.599 2026.57 217.075 2026.32 217.537 2026.11 217.888 2025.75 218.431 2025.54 218.762 2025.16 219.287 2024.96 219.552 2024.65 219.964 2024.25 220.485 2023.88 220.983 2023.61 221.322 2023.35 221.634 2023.07 221.981 2022.8 222.286 2022.24 222.925 2021.9 223.304 2021.51 223.701 2020.97 224.255 2020.43 224.8 2019.8 225.375 2019.29 225.825 2018.64 226.379 2018.08 226.815 2017.43 227.293 2017.01 227.591 2016.48 227.94 2015.83 228.312 2015.4 228.531 2014.99 228.728 2014.6 228.874 2014.25 228.995 2013.96 229.06 2013.67 229.109 2013.42 229.121 2013.09 229.125 2012.78 229.105 2012.38 229.052 2011.96 228.951 2011.68 228.87 2011.32 228.724 2011.07 228.6 2010.74 228.438 2010.36 228.219 2009.95 227.98 2009.65 227.771 2009.26 227.514 2008.85 227.224 2008.34 226.843 2007.93 226.5 2007.43 226.091 2007.1 225.809 2006.67 225.416 2006.34 225.124 2005.89 224.672 2005.42 224.206 2004.98 223.754 2004.68 223.43 2004.29 222.992 2004.07 222.759 2003.84 222.487 2003.35 221.917 2002.97 221.441 2002.55 220.91 2002.23 220.478 2002.01 220.169 2001.68 219.722 2001.55 219.548 2001.22 219.098 2000.65 218.241 2000.44 217.896 2000.09 217.327 1999.68 216.577 1999.45 216.113 1999.19 215.543 1999.01 215.15 1998.81 214.633 1998.56 214.005 1998.45 213.689 1998.17 212.805 1997.99 212.124 1997.84 211.506 1997.74 211.037 1997.62 210.438 1997.56 209.856 1997.52 209.422 1997.48 209.005 1997.45 208.53 1997.44 208.323 1997.45 207.837 1997.45 207.513 1997.46 207.328 1997.49 206.878 1997.52 206.619 1997.6 206.083 1997.65 205.717 1997.72 205.401 1997.83 204.958 1997.97 204.545 1998.1 204.168 1998.3 203.712 1998.5 203.307 1998.79 202.813 1999.08 202.385 1999.44 201.953 1999.8 201.568 2000.16 201.217 2000.45 200.952 2000.85 200.643 2001.28 200.358 2001.68 200.135 2002.25 199.849 2002.74 199.634 2003.33 199.444 2003.84 199.306 2004.4 199.194 2005.01 199.128 2005.59 199.101 2006.07 199.101 2006.73 199.158 2007.23 199.225 2007.9 199.372 2008.24 199.472 2008.86 199.695 2009.33 199.891 2009.84 200.161 2010.4 200.504 2010.94 200.893 2011.53 201.41 2011.99 201.896 2012.47 202.478 2012.71 202.841 2012.94 203.25 2013.13 203.631 2013.26 203.87"></polyline>
            <path d="M1981.43,579.317 L2090.62,579.317 L2090.62,267.117 L1981.43,267.117 L1981.43,579.317 Z M1977.52,579.417 L2167.6,579.417 L2167.6,447.888 L1977.52,447.888 L1977.52,579.417 Z" id="Fill-144" fill="#009639"></path>
            <polygon id="Fill-145" fill="#C7FFD3" points="2125.24 495.918 2149.67 495.918 2149.67 472.176 2125.24 472.176"></polygon>
            <polygon id="Fill-146" fill="#FFFFFF" points="2084.53 495.918 2108.96 495.918 2108.96 472.176 2084.53 472.176"></polygon>
            <polygon id="Fill-147" fill="#C7FFD3" points="2043.82 495.918 2068.25 495.918 2068.25 472.176 2043.82 472.176"></polygon>
            <path d="M2043.82,448.435 L2068.25,448.435 L2068.25,424.691 L2043.82,424.691 L2043.82,448.435 Z M2003.11,495.918 L2027.54,495.918 L2027.54,472.176 L2003.11,472.176 L2003.11,495.918 Z" id="Fill-148" fill="#FFFFFF"></path>
            <path d="M2043.82,402.924 L2068.25,402.924 L2068.25,379.185 L2043.82,379.185 L2043.82,402.924 Z M2003.11,448.435 L2027.54,448.435 L2027.54,424.691 L2003.11,424.691 L2003.11,448.435 Z" id="Fill-149" fill="#C7FFD3"></path>
            <path d="M2043.82,357.419 L2068.25,357.419 L2068.25,333.68 L2043.82,333.68 L2043.82,357.419 Z M2003.11,402.924 L2027.54,402.924 L2027.54,379.185 L2003.11,379.185 L2003.11,402.924 Z" id="Fill-150" fill="#FFFFFF"></path>
            <path d="M2043.82,311.913 L2068.25,311.913 L2068.25,288.174 L2043.82,288.174 L2043.82,311.913 Z M2003.11,357.419 L2027.54,357.419 L2027.54,333.68 L2003.11,333.68 L2003.11,357.419 Z" id="Fill-151" fill="#C7FFD3"></path>
            <polygon id="Fill-152" fill="#FFFFFF" points="2003.11 311.913 2027.54 311.913 2027.54 288.174 2003.11 288.174"></polygon>
            <path d="M2098.62,363.199 C2092.52,350.191 2098.12,334.708 2111.13,328.615 C2124.13,322.516 2139.62,328.126 2145.72,341.125 L2174.54,402.646 C2180.64,415.653 2175.03,431.136 2162.03,437.229 C2149.02,443.328 2133.54,437.727 2127.44,424.715 L2098.62,363.199" id="Fill-153" fill="#62DE81"></path>
            <path d="M2159.68,370.924 L2145.72,341.124 C2139.62,328.124 2124.14,322.514 2111.13,328.613 C2098.13,334.708 2092.52,350.191 2098.62,363.197 L2112.58,392.994 L2159.68,370.924" id="Fill-154" fill="#009639"></path>
            <path d="M1923.87,416.346 C1923.87,419.704 1921.15,422.425 1917.79,422.425 L1909.26,422.425 C1905.9,422.425 1903.18,419.704 1903.18,416.346 L1903.18,395.402 C1903.18,392.036 1905.9,389.318 1909.26,389.318 L1917.79,389.318 C1921.15,389.318 1923.87,392.036 1923.87,395.402 L1923.87,416.346 Z M1923.87,469.191 C1923.87,472.549 1921.15,475.274 1917.79,475.274 L1909.26,475.274 C1905.9,475.274 1903.18,472.549 1903.18,469.191 L1903.18,448.247 C1903.18,444.881 1905.9,442.167 1909.26,442.167 L1917.79,442.167 C1921.15,442.167 1923.87,444.881 1923.87,448.247 L1923.87,469.191 Z M1923.87,519.313 C1923.87,522.674 1921.15,525.396 1917.79,525.396 L1909.26,525.396 C1905.9,525.396 1903.18,522.674 1903.18,519.313 L1903.18,498.368 C1903.18,495.007 1905.9,492.285 1909.26,492.285 L1917.79,492.285 C1921.15,492.285 1923.87,495.007 1923.87,498.368 L1923.87,519.313 Z" id="Fill-155" fill="#FFFFFF"></path>
            <polygon id="Fill-156" fill="#62DE81" points="1854.2 579.417 2003.85 579.417 2003.85 333.364 1854.2 333.364"></polygon>
            <path d="M1929.24,292.735 C1951.25,292.735 1969.1,310.581 1969.1,332.595 C1969.1,354.608 1951.25,372.454 1929.24,372.454 C1907.23,372.454 1889.38,354.608 1889.38,332.595 C1889.38,310.581 1907.23,292.735 1929.24,292.735" id="Fill-157" fill="#009639"></path>
            <polygon id="Fill-158" fill="#005C37" points="1899.88 579.414 1958.71 579.414 1958.71 530.704 1899.88 530.704"></polygon>
            <path d="M1944.45,326.324 L1937,326.324 L1937,318.802 C1937,314.765 1933.76,311.489 1929.76,311.489 C1925.76,311.489 1922.52,314.765 1922.52,318.802 L1922.52,326.324 L1915.07,326.324 C1911.07,326.324 1907.82,329.596 1907.82,333.633 C1907.82,337.673 1911.07,340.942 1915.07,340.942 L1922.52,340.942 L1922.52,348.464 C1922.52,352.5 1925.76,355.777 1929.76,355.777 C1933.76,355.777 1937,352.5 1937,348.464 L1937,340.942 L1944.45,340.942 C1948.45,340.942 1951.7,337.673 1951.7,333.633 C1951.7,329.596 1948.45,326.324 1944.45,326.324" id="Fill-159" fill="#FFFFFF"></path>
            <polygon id="Fill-160" fill="#005C37" points="2045.25 579.417 2115.12 579.417 2115.12 530.129 2045.25 530.129"></polygon>
            <path d="M1979.02,511.015 C1979.02,514.246 1976.42,516.871 1973.2,516.871 L1965.04,516.871 C1961.83,516.871 1959.23,514.246 1959.23,511.015 L1959.23,490.832 C1959.23,487.589 1961.83,484.964 1965.04,484.964 L1973.2,484.964 C1976.42,484.964 1979.02,487.589 1979.02,490.832 L1979.02,511.015" id="Fill-161" fill="#FFFFFF"></path>
            <path d="M1979.02,462.727 C1979.02,465.966 1976.42,468.583 1973.2,468.583 L1965.04,468.583 C1961.83,468.583 1959.23,465.966 1959.23,462.727 L1959.23,442.548 C1959.23,439.31 1961.83,436.688 1965.04,436.688 L1973.2,436.688 C1976.42,436.688 1979.02,439.31 1979.02,442.548 L1979.02,462.727" id="Fill-162" fill="#009639"></path>
            <path d="M1979.02,411.816 C1979.02,415.055 1976.42,417.676 1973.2,417.676 L1965.04,417.676 C1961.83,417.676 1959.23,415.055 1959.23,411.816 L1959.23,391.634 C1959.23,388.398 1961.83,385.777 1965.04,385.777 L1973.2,385.777 C1976.42,385.777 1979.02,388.398 1979.02,391.634 L1979.02,411.816" id="Fill-163" fill="#FFFFFF"></path>
            <path d="M1937.96,511.015 C1937.96,514.246 1935.36,516.871 1932.14,516.871 L1923.99,516.871 C1920.77,516.871 1918.17,514.246 1918.17,511.015 L1918.17,490.832 C1918.17,487.589 1920.77,484.964 1923.99,484.964 L1932.14,484.964 C1935.36,484.964 1937.96,487.589 1937.96,490.832 L1937.96,511.015" id="Fill-164" fill="#009639"></path>
            <path d="M1937.96,462.727 C1937.96,465.966 1935.36,468.583 1932.14,468.583 L1923.99,468.583 C1920.77,468.583 1918.17,465.966 1918.17,462.727 L1918.17,442.548 C1918.17,439.31 1920.77,436.688 1923.99,436.688 L1932.14,436.688 C1935.36,436.688 1937.96,439.31 1937.96,442.548 L1937.96,462.727" id="Fill-165" fill="#FFFFFF"></path>
            <path d="M1937.96,411.816 C1937.96,415.055 1935.36,417.676 1932.14,417.676 L1923.99,417.676 C1920.77,417.676 1918.17,415.055 1918.17,411.816 L1918.17,391.634 C1918.17,388.398 1920.77,385.777 1923.99,385.777 L1932.14,385.777 C1935.36,385.777 1937.96,388.398 1937.96,391.634 L1937.96,411.816" id="Fill-166" fill="#009639"></path>
            <path d="M1896.9,511.015 C1896.9,514.246 1894.3,516.871 1891.09,516.871 L1882.93,516.871 C1879.71,516.871 1877.11,514.246 1877.11,511.015 L1877.11,490.832 C1877.11,487.589 1879.71,484.964 1882.93,484.964 L1891.09,484.964 C1894.3,484.964 1896.9,487.589 1896.9,490.832 L1896.9,511.015" id="Fill-167" fill="#FFFFFF"></path>
            <path d="M1896.9,462.727 C1896.9,465.966 1894.3,468.583 1891.09,468.583 L1882.93,468.583 C1879.71,468.583 1877.11,465.966 1877.11,462.727 L1877.11,442.548 C1877.11,439.31 1879.71,436.688 1882.93,436.688 L1891.09,436.688 C1894.3,436.688 1896.9,439.31 1896.9,442.548 L1896.9,462.727" id="Fill-168" fill="#009639"></path>
            <path d="M1835.38,440.194 C1835.38,443.991 1832.3,447.066 1828.51,447.066 L1819.34,447.066 C1815.55,447.066 1812.47,443.989 1812.47,440.194 L1812.47,412.848 C1812.47,409.051 1815.55,405.976 1819.34,405.976 L1828.51,405.976 C1832.3,405.976 1835.38,409.053 1835.38,412.848 L1835.38,440.194 Z M1896.9,411.816 C1896.9,415.055 1894.3,417.676 1891.09,417.676 L1882.93,417.676 C1879.71,417.676 1877.11,415.055 1877.11,411.816 L1877.11,391.634 C1877.11,388.398 1879.71,385.777 1882.93,385.777 L1891.09,385.777 C1894.3,385.777 1896.9,388.398 1896.9,391.634 L1896.9,411.816 Z" id="Fill-169" fill="#FFFFFF"></path>
            <path d="M1835.38,380.979 C1835.38,384.776 1832.3,387.852 1828.51,387.852 L1819.34,387.852 C1815.55,387.852 1812.47,384.774 1812.47,380.979 L1812.47,353.634 C1812.47,349.836 1815.55,346.761 1819.34,346.761 L1828.51,346.761 C1832.3,346.761 1835.38,349.838 1835.38,353.634 L1835.38,380.979" id="Fill-170" fill="#62DE81"></path>
            <path d="M1835.38,321.764 C1835.38,325.562 1832.3,328.637 1828.51,328.637 L1819.34,328.637 C1815.55,328.637 1812.47,325.56 1812.47,321.764 L1812.47,294.419 C1812.47,290.621 1815.55,287.544 1819.34,287.544 L1828.51,287.544 C1832.3,287.544 1835.38,290.621 1835.38,294.419 L1835.38,321.764 Z M1789.98,380.979 C1789.98,384.776 1786.9,387.852 1783.11,387.852 L1773.95,387.852 C1770.15,387.852 1767.07,384.774 1767.07,380.979 L1767.07,353.634 C1767.07,349.836 1770.15,346.761 1773.95,346.761 L1783.11,346.761 C1786.91,346.761 1789.98,349.838 1789.98,353.634 L1789.98,380.979 Z" id="Fill-171" fill="#FFFFFF"></path>
            <path d="M1767.63,439.596 L1767.63,423.935 L1705.9,423.935 L1705.9,439.159 C1689.66,444.542 1677.92,459.831 1677.92,477.88 L1677.92,579.419 L1794.41,579.419 L1794.41,477.88 C1794.41,460.273 1783.25,445.32 1767.63,439.596 Z M1789.98,321.764 C1789.98,325.562 1786.9,328.637 1783.11,328.637 L1773.95,328.637 C1770.15,328.637 1767.07,325.56 1767.07,321.764 L1767.07,294.419 C1767.07,290.621 1770.15,287.544 1773.95,287.544 L1783.11,287.544 C1786.91,287.544 1789.98,290.621 1789.98,294.419 L1789.98,321.764 Z" id="Fill-172" fill="#62DE81"></path>
            <polygon id="Fill-173" fill="#C7FFD3" points="1701.61 553.126 1771.62 553.126 1771.62 471.593 1701.61 471.593"></polygon>
            <polygon id="Fill-174" fill="#005C37" points="1696.45 426.959 1776.55 426.959 1776.55 393.079 1696.45 393.079"></polygon>
            <path d="M1751.41,505.415 L1744.43,505.415 L1744.43,498.368 C1744.43,494.59 1741.39,491.517 1737.64,491.517 C1733.9,491.517 1730.86,494.59 1730.86,498.368 L1730.86,505.415 L1723.88,505.415 C1720.13,505.415 1717.09,508.484 1717.09,512.266 C1717.09,516.052 1720.13,519.113 1723.88,519.113 L1730.86,519.113 L1730.86,526.16 C1730.86,529.938 1733.9,533.011 1737.64,533.011 C1741.39,533.011 1744.43,529.938 1744.43,526.16 L1744.43,519.113 L1751.41,519.113 C1755.16,519.113 1758.2,516.052 1758.2,512.266 C1758.19,508.482 1755.16,505.415 1751.41,505.415" id="Fill-175" fill="#009639"></path>
            <path d="M1942.05,540.559 C1947.16,540.559 1951.29,544.693 1951.29,549.794 C1951.29,554.895 1947.16,559.03 1942.05,559.03 C1936.95,559.03 1932.82,554.895 1932.82,549.794 C1932.82,544.693 1936.95,540.559 1942.05,540.559" id="Fill-176" fill="#FFFFFF"></path>
            <path d="M1917.43,540.559 C1922.53,540.559 1926.66,544.693 1926.66,549.794 C1926.66,554.895 1922.53,559.03 1917.43,559.03 C1912.33,559.03 1908.19,554.895 1908.19,549.794 C1908.19,544.693 1912.33,540.559 1917.43,540.559" id="Fill-177" fill="#FFFFFF"></path>
            <path d="M1877.37,542.775 C1883.29,542.775 1888.09,547.575 1888.09,553.495 C1888.09,559.416 1883.29,564.215 1877.37,564.215 C1871.45,564.215 1866.65,559.416 1866.65,553.495 C1866.65,547.575 1871.45,542.775 1877.37,542.775" id="Fill-178" fill="#C7FFD3"></path>
            <polygon id="Fill-179" fill="#009639" points="1867.36 594.367 1887.8 594.367 1887.8 564.073 1867.36 564.073"></polygon>
            <polyline id="Fill-180" fill="#005C37" points="1987.26 565.063 1977.26 565.208 1964.68 596.361 1997.83 596.361 1987.26 565.063"></polyline>
            <path d="M1982.25,545.629 C1988.17,545.629 1992.97,550.428 1992.97,556.347 C1992.97,562.267 1988.17,567.065 1982.25,567.065 C1976.33,567.065 1971.54,562.267 1971.54,556.347 C1971.54,550.428 1976.33,545.629 1982.25,545.629" id="Fill-181" fill="#009639"></path>
            <path d="M1735.74,544.254 C1741.66,544.254 1746.46,549.052 1746.46,554.972 C1746.46,560.891 1741.66,565.689 1735.74,565.689 C1729.83,565.689 1725.03,560.891 1725.03,554.972 C1725.03,549.052 1729.83,544.254 1735.74,544.254" id="Fill-182" fill="#009639"></path>
            <polygon id="Fill-183" fill="#005C37" points="1725.74 595.843 1746.18 595.843 1746.18 565.549 1725.74 565.549"></polygon>
            <polyline id="Fill-184" fill="#009639" points="2086.28 568.684 2076.28 568.828 2063.7 599.98 2096.86 599.98 2086.28 568.684"></polyline>
            <path d="M2081.27,549.25 C2087.19,549.25 2091.99,554.048 2091.99,559.967 C2091.99,565.887 2087.19,570.685 2081.27,570.685 C2075.36,570.685 2070.56,565.887 2070.56,559.967 C2070.56,554.048 2075.36,549.25 2081.27,549.25" id="Fill-185" fill="#62DE81"></path>
            <path d="M2205.8,504.667 C2206.86,502.134 2207.44,499.355 2207.44,496.44 C2207.44,484.628 2197.87,475.055 2186.06,475.055 C2174.25,475.055 2164.67,484.628 2164.67,496.44 C2164.67,499.355 2165.26,502.134 2166.32,504.667 C2159.69,510.276 2155.46,518.649 2155.46,528.021 C2155.46,544.919 2169.16,558.615 2186.06,558.615 C2202.96,558.615 2216.65,544.919 2216.65,528.021 C2216.65,518.649 2212.43,510.274 2205.8,504.667" id="Fill-186" fill="#C7FFD3"></path>
            <path d="M2190.33,587.83 C2190.33,590.092 2188.49,591.935 2186.22,591.935 C2183.96,591.935 2182.12,590.092 2182.12,587.83 L2182.12,532.158 C2182.12,529.892 2183.96,528.057 2186.22,528.057 C2188.49,528.057 2190.33,529.892 2190.33,532.158 L2190.33,587.83" id="Fill-187" fill="#005C37"></path>
            <path d="M1832.75,502.693 C1833.8,500.161 1834.39,497.381 1834.39,494.466 C1834.39,482.655 1824.82,473.082 1813.01,473.082 C1801.2,473.082 1791.62,482.655 1791.62,494.466 C1791.62,497.381 1792.21,500.161 1793.27,502.693 C1786.63,508.302 1782.41,516.675 1782.41,526.047 C1782.41,542.945 1796.11,556.642 1813.01,556.642 C1829.9,556.642 1843.6,542.945 1843.6,526.047 C1843.6,516.675 1839.38,508.3 1832.75,502.693" id="Fill-188" fill="#C7FFD3"></path>
            <path d="M1817.28,585.856 C1817.28,588.118 1815.44,589.961 1813.17,589.961 C1810.91,589.961 1809.07,588.118 1809.07,585.856 L1809.07,530.184 C1809.07,527.918 1810.91,526.083 1813.17,526.083 C1815.44,526.083 1817.28,527.918 1817.28,530.184 L1817.28,585.856" id="Fill-189" fill="#005C37"></path>
            <path d="M2368.62,531.155 L2358.25,531.155 L2358.25,522.342 C2358.25,512.975 2350.66,505.387 2341.3,505.387 L2327.4,505.387 L2326.4,505.437 L2326.4,567.817 L2379.41,567.817 L2379.41,541.95 C2379.41,535.985 2374.58,531.155 2368.62,531.155 Z M2276.2,495.313 L2276.2,486.677 C2276.2,481.634 2280.28,477.548 2285.33,477.548 C2290.37,477.548 2294.46,481.634 2294.46,486.677 L2294.46,495.313 L2276.2,495.313 Z" id="Fill-190" fill="#009639"></path>
            <polygon id="Fill-191" fill="#C7FFD3" points="2235.29 567.809 2333.05 567.809 2333.05 492.403 2235.29 492.403"></polygon>
            <path d="M2354.44,553.189 C2362.31,553.189 2368.7,559.573 2368.7,567.448 C2368.7,575.323 2362.31,581.707 2354.44,581.707 C2346.56,581.707 2340.18,575.323 2340.18,567.448 C2340.18,559.573 2346.56,553.189 2354.44,553.189" id="Fill-192" fill="#005C37"></path>
            <path d="M2261.63,552.828 C2269.51,552.828 2275.89,559.211 2275.89,567.085 C2275.89,574.959 2269.51,581.342 2261.63,581.342 C2253.76,581.342 2247.38,574.959 2247.38,567.085 C2247.38,559.211 2253.76,552.828 2261.63,552.828" id="Fill-193" fill="#005C37"></path>
            <path d="M2284.84,503.958 C2297.14,503.958 2307.1,513.924 2307.1,526.219 C2307.1,538.513 2297.14,548.479 2284.84,548.479 C2272.55,548.479 2262.58,538.513 2262.58,526.219 C2262.58,513.924 2272.55,503.958 2284.84,503.958" id="Fill-194" fill="#009639"></path>
            <path d="M2294.03,522.372 L2289.52,522.372 L2289.52,517.818 C2289.52,515.375 2287.56,513.389 2285.13,513.389 C2282.71,513.389 2280.74,515.375 2280.74,517.818 L2280.74,522.372 L2276.24,522.372 C2273.81,522.372 2271.85,524.354 2271.85,526.797 C2271.85,529.245 2273.81,531.223 2276.24,531.223 L2280.74,531.223 L2280.74,535.776 C2280.74,538.224 2282.71,540.206 2285.13,540.206 C2287.56,540.206 2289.52,538.224 2289.52,535.776 L2289.52,531.223 L2294.03,531.223 C2296.45,531.223 2298.41,529.245 2298.41,526.797 C2298.41,524.354 2296.45,522.372 2294.03,522.372" id="Fill-195" fill="#FFFFFF"></path>
            <path d="M2475.39,511.208 L2475.39,502.572 C2475.39,497.529 2471.3,493.443 2466.26,493.443 C2461.22,493.443 2457.13,497.529 2457.13,502.572 L2457.13,511.208 L2475.39,511.208" id="Fill-196" fill="#005C37"></path>
            <polyline id="Fill-197" fill="#009639" points="2507.28 542.736 2424.57 542.736 2435.32 506.482 2496.52 506.482 2507.28 542.736"></polyline>
            <polyline id="Fill-198" fill="#C7FFD3" points="2500.46 542.627 2432.23 542.627 2440.56 512.858 2491.5 512.858 2500.46 542.627"></polyline>
            <path d="M2472.11,545.116 L2477.74,545.116 L2477.74,511.593 L2472.11,511.593 L2472.11,545.116 Z M2397.49,569.181 L2531.409,569.181 L2531.409,537.434 L2397.49,537.434 L2397.49,569.181 Z" id="Fill-199" fill="#009639"></path>
            <path d="M2427.95,553.037 C2435.78,553.037 2442.12,559.382 2442.12,567.209 C2442.12,575.036 2435.78,581.381 2427.95,581.381 C2420.12,581.381 2413.77,575.036 2413.77,567.209 C2413.77,559.382 2420.12,553.037 2427.95,553.037" id="Fill-200" fill="#005C37"></path>
            <path d="M2502.14,553.037 C2509.97,553.037 2516.32,559.382 2516.32,567.209 C2516.32,575.036 2509.97,581.381 2502.14,581.381 C2494.32,581.381 2487.97,575.036 2487.97,567.209 C2487.97,559.382 2494.32,553.037 2502.14,553.037" id="Fill-201" fill="#005C37"></path>
            <path d="M2465.38,543.395 C2465.38,543.395 2469.11,545.596 2472.28,543.079 L2474.93,545.793 C2474.93,545.793 2471.44,546.853 2474.57,556.025 C2474.57,556.025 2475.88,559.827 2472.7,562.873 C2471.3,564.211 2467.98,563.548 2465.4,566.064 L2465.36,566.1 L2465.32,566.064 C2462.74,563.548 2459.42,564.211 2458.02,562.873 C2454.84,559.827 2456.15,556.025 2456.15,556.025 C2459.28,546.855 2455.8,545.793 2455.8,545.793 L2458.44,543.079 C2461.61,545.596 2465.35,543.391 2465.35,543.391 L2465.38,543.395" id="Fill-202" fill="#C7FFD3"></path>
        </g>
    </g>
</svg>